<svg width="21" height="24" viewBox="0 0 21 24" fill="none" xmlns="http://www.w3.org/2000/svg">
<path d="M17.3476 16.5468L10.7008 23.1936L4.05394 16.5468C2.73934 15.2321 1.84409 13.5572 1.4814 11.7338C1.1187 9.91039 1.30486 8.02037 2.01633 6.30275C2.7278 4.58513 3.93262 3.11706 5.47844 2.08418C7.02426 1.0513 8.84165 0.5 10.7008 0.5C12.5599 0.5 14.3773 1.0513 15.9231 2.08418C17.469 3.11706 18.6738 4.58513 19.3852 6.30275C20.0967 8.02037 20.2829 9.91039 19.9202 11.7338C19.5575 13.5572 18.6622 15.2321 17.3476 16.5468ZM10.7008 12.5999C11.4169 12.5999 12.1036 12.3154 12.61 11.8091C13.1163 11.3028 13.4008 10.616 13.4008 9.89991C13.4008 9.18383 13.1163 8.49707 12.61 7.99073C12.1036 7.48438 11.4169 7.19991 10.7008 7.19991C9.9847 7.19991 9.29795 7.48438 8.7916 7.99073C8.28525 8.49707 8.00079 9.18383 8.00079 9.89991C8.00079 10.616 8.28525 11.3028 8.7916 11.8091C9.29795 12.3154 9.9847 12.5999 10.7008 12.5999Z" fill="#77BA72" stroke="#77BA72"/>
</svg>
